<mxfile host="app.diagrams.net" agent="Mozilla/5.0 (Macintosh; Intel Mac OS X 10_15_7) AppleWebKit/537.36 (KHTML, like Gecko) Chrome/138.0.0.0 Safari/537.36" version="28.1.0">
  <diagram name="Page-1" id="cyUw5eDzDK43T5KcvDZA">
    <mxGraphModel grid="1" page="1" gridSize="12" guides="1" tooltips="1" connect="1" arrows="1" fold="1" pageScale="1" pageWidth="1100" pageHeight="850" math="1" shadow="0">
      <root>
        <mxCell id="0" />
        <mxCell id="1" parent="0" />
        <mxCell id="xQkfAlKZnFqGmRiy124j-122" value="" style="rounded=1;whiteSpace=wrap;html=1;fillColor=#f5f5f5;dashed=1;dashPattern=12 12;strokeColor=#666666;arcSize=2;fontColor=#333333;fontSize=12.5;" vertex="1" parent="1">
          <mxGeometry x="1249" y="888" width="312" height="408" as="geometry" />
        </mxCell>
        <mxCell id="xQkfAlKZnFqGmRiy124j-120" value="" style="endArrow=none;html=1;rounded=0;endFill=0;strokeColor=light-dark(#848484, #ededed);exitX=0.5;exitY=0;exitDx=0;exitDy=0;fontSize=12.5;entryX=0.143;entryY=1;entryDx=0;entryDy=0;entryPerimeter=0;" edge="1" parent="1">
          <mxGeometry width="50" height="50" relative="1" as="geometry">
            <mxPoint x="1487" y="1239" as="sourcePoint" />
            <mxPoint x="1487.18" y="1224" as="targetPoint" />
          </mxGeometry>
        </mxCell>
        <mxCell id="xQkfAlKZnFqGmRiy124j-121" value="" style="endArrow=none;html=1;rounded=0;endFill=0;strokeColor=light-dark(#848484, #ededed);exitX=0.5;exitY=0;exitDx=0;exitDy=0;fontSize=12.5;entryX=0.143;entryY=1;entryDx=0;entryDy=0;entryPerimeter=0;" edge="1" parent="1">
          <mxGeometry width="50" height="50" relative="1" as="geometry">
            <mxPoint x="1491" y="1239" as="sourcePoint" />
            <mxPoint x="1491.18" y="1224" as="targetPoint" />
          </mxGeometry>
        </mxCell>
        <mxCell id="xQkfAlKZnFqGmRiy124j-118" value="" style="endArrow=none;html=1;rounded=0;endFill=0;strokeColor=light-dark(#848484, #ededed);exitX=0.5;exitY=0;exitDx=0;exitDy=0;fontSize=12.5;entryX=0.143;entryY=1;entryDx=0;entryDy=0;entryPerimeter=0;" edge="1" parent="1">
          <mxGeometry width="50" height="50" relative="1" as="geometry">
            <mxPoint x="1397" y="1239" as="sourcePoint" />
            <mxPoint x="1397.18" y="1224" as="targetPoint" />
          </mxGeometry>
        </mxCell>
        <mxCell id="xQkfAlKZnFqGmRiy124j-119" value="" style="endArrow=none;html=1;rounded=0;endFill=0;strokeColor=light-dark(#848484, #ededed);exitX=0.5;exitY=0;exitDx=0;exitDy=0;fontSize=12.5;entryX=0.143;entryY=1;entryDx=0;entryDy=0;entryPerimeter=0;" edge="1" parent="1">
          <mxGeometry width="50" height="50" relative="1" as="geometry">
            <mxPoint x="1401" y="1239" as="sourcePoint" />
            <mxPoint x="1401.18" y="1224" as="targetPoint" />
          </mxGeometry>
        </mxCell>
        <mxCell id="xQkfAlKZnFqGmRiy124j-117" value="" style="endArrow=none;html=1;rounded=0;endFill=0;strokeColor=light-dark(#848484, #ededed);exitX=0.5;exitY=0;exitDx=0;exitDy=0;fontSize=12.5;entryX=0.143;entryY=1;entryDx=0;entryDy=0;entryPerimeter=0;" edge="1" parent="1">
          <mxGeometry width="50" height="50" relative="1" as="geometry">
            <mxPoint x="1307" y="1239" as="sourcePoint" />
            <mxPoint x="1307.18" y="1224" as="targetPoint" />
          </mxGeometry>
        </mxCell>
        <mxCell id="xQkfAlKZnFqGmRiy124j-116" value="" style="endArrow=none;html=1;rounded=0;endFill=0;strokeColor=light-dark(#848484, #ededed);exitX=0.5;exitY=0;exitDx=0;exitDy=0;fontSize=12.5;entryX=0.143;entryY=1;entryDx=0;entryDy=0;entryPerimeter=0;" edge="1" parent="1">
          <mxGeometry width="50" height="50" relative="1" as="geometry">
            <mxPoint x="1311" y="1239" as="sourcePoint" />
            <mxPoint x="1311.18" y="1224" as="targetPoint" />
          </mxGeometry>
        </mxCell>
        <mxCell id="xQkfAlKZnFqGmRiy124j-113" value="" style="rounded=1;whiteSpace=wrap;html=1;arcSize=6;movable=1;resizable=1;rotatable=1;deletable=1;editable=1;locked=0;connectable=1;fillColor=default;fontSize=12.5;" vertex="1" parent="1">
          <mxGeometry x="1268" y="997" width="260" height="220" as="geometry" />
        </mxCell>
        <mxCell id="0xg1YhfjWM0nEvJ3u9Fa-127" value="" style="endArrow=block;html=1;rounded=0;endFill=1;strokeColor=light-dark(#848484, #ededed);fontSize=12.5;exitX=0.488;exitY=-0.002;exitDx=0;exitDy=0;exitPerimeter=0;" edge="1" parent="1" source="xQkfAlKZnFqGmRiy124j-113">
          <mxGeometry width="50" height="50" relative="1" as="geometry">
            <mxPoint x="1395" y="992" as="sourcePoint" />
            <mxPoint x="1395" y="979" as="targetPoint" />
          </mxGeometry>
        </mxCell>
        <mxCell id="0xg1YhfjWM0nEvJ3u9Fa-128" value="" style="endArrow=block;html=1;rounded=0;endFill=1;strokeColor=light-dark(#848484, #ededed);exitX=0.5;exitY=0;exitDx=0;exitDy=0;fontSize=12.5;" edge="1" parent="1">
          <mxGeometry width="50" height="50" relative="1" as="geometry">
            <mxPoint x="1400" y="1004" as="sourcePoint" />
            <mxPoint x="1400" y="979" as="targetPoint" />
          </mxGeometry>
        </mxCell>
        <mxCell id="xQkfAlKZnFqGmRiy124j-114" value="" style="rounded=1;whiteSpace=wrap;html=1;arcSize=6;movable=1;resizable=1;rotatable=1;deletable=1;editable=1;locked=0;connectable=1;fillColor=default;fontSize=12.5;" vertex="1" parent="1">
          <mxGeometry x="1272" y="1001" width="260" height="220" as="geometry" />
        </mxCell>
        <mxCell id="0xg1YhfjWM0nEvJ3u9Fa-131" value="" style="rounded=1;whiteSpace=wrap;html=1;arcSize=6;movable=1;resizable=1;rotatable=1;deletable=1;editable=1;locked=0;connectable=1;fillColor=default;fontSize=12.5;" vertex="1" parent="1">
          <mxGeometry x="1275" y="1004" width="260" height="220" as="geometry" />
        </mxCell>
        <mxCell id="0xg1YhfjWM0nEvJ3u9Fa-135" value="" style="endArrow=block;html=1;rounded=0;endFill=1;exitX=0.5;exitY=0;exitDx=0;exitDy=0;fontSize=12.5;" edge="1" parent="1">
          <mxGeometry width="50" height="50" relative="1" as="geometry">
            <mxPoint x="1404.88" y="902" as="sourcePoint" />
            <mxPoint x="1404.92" y="867" as="targetPoint" />
          </mxGeometry>
        </mxCell>
        <mxCell id="0xg1YhfjWM0nEvJ3u9Fa-136" value="" style="endArrow=baseDash;html=1;rounded=0;startArrow=baseDash;startFill=0;endFill=0;fontColor=#000000;fillColor=#f5f5f5;strokeColor=#000000;fontSize=12.5;" edge="1" parent="1">
          <mxGeometry width="50" height="50" relative="1" as="geometry">
            <mxPoint x="1541" y="1011" as="sourcePoint" />
            <mxPoint x="1521" y="990.8699999999999" as="targetPoint" />
          </mxGeometry>
        </mxCell>
        <mxCell id="0xg1YhfjWM0nEvJ3u9Fa-139" value="&lt;font&gt;$$H \text{ heads}$$&lt;/font&gt;" style="rounded=0;whiteSpace=wrap;html=1;fillColor=none;strokeColor=none;fontSize=12.5;" vertex="1" parent="1">
          <mxGeometry x="1490" y="965" width="55" height="30" as="geometry" />
        </mxCell>
        <mxCell id="0xg1YhfjWM0nEvJ3u9Fa-141" value="&lt;font style=&quot;line-height: 100%;&quot;&gt;$$X\hspace{-0.2em}:\hspace{-0.1em}[N,DH]$$&lt;/font&gt;" style="rounded=1;whiteSpace=wrap;html=1;strokeColor=none;fillColor=none;align=center;fontSize=12.5;" vertex="1" parent="1">
          <mxGeometry x="1365" y="1308" width="170" height="20" as="geometry" />
        </mxCell>
        <mxCell id="0xg1YhfjWM0nEvJ3u9Fa-166" value="" style="edgeStyle=orthogonalEdgeStyle;rounded=0;orthogonalLoop=1;jettySize=auto;html=1;endArrow=none;endFill=0;fontSize=12.5;" edge="1" parent="1" source="0xg1YhfjWM0nEvJ3u9Fa-162" target="0xg1YhfjWM0nEvJ3u9Fa-151">
          <mxGeometry relative="1" as="geometry" />
        </mxCell>
        <mxCell id="0xg1YhfjWM0nEvJ3u9Fa-162" value="&lt;span&gt;$$\text{ResMLP}$$&lt;/span&gt;" style="rounded=1;whiteSpace=wrap;html=1;align=center;fillColor=#d5e8d4;strokeColor=#000000;fontSize=12.5;" vertex="1" parent="1">
          <mxGeometry x="1455" y="1239" width="80" height="30" as="geometry" />
        </mxCell>
        <mxCell id="0xg1YhfjWM0nEvJ3u9Fa-163" value="&lt;span&gt;$$\text{ResMLP}$$&lt;/span&gt;" style="rounded=1;whiteSpace=wrap;html=1;align=center;fillColor=#d5e8d4;strokeColor=#000000;fontSize=12.5;" vertex="1" parent="1">
          <mxGeometry x="1365" y="1239" width="80" height="30" as="geometry" />
        </mxCell>
        <mxCell id="0xg1YhfjWM0nEvJ3u9Fa-164" value="&lt;span&gt;$$\text{Learned}$$&lt;/span&gt;" style="rounded=1;whiteSpace=wrap;html=1;align=center;fillColor=#f8cecc;strokeColor=#000000;fontSize=12.5;" vertex="1" parent="1">
          <mxGeometry x="1275" y="1239" width="80" height="30" as="geometry" />
        </mxCell>
        <mxCell id="xQkfAlKZnFqGmRiy124j-19" value="" style="edgeStyle=orthogonalEdgeStyle;rounded=0;orthogonalLoop=1;jettySize=auto;html=1;endArrow=none;endFill=0;fontSize=12.5;" edge="1" parent="1">
          <mxGeometry relative="1" as="geometry">
            <mxPoint x="1314.94" y="1239" as="sourcePoint" />
            <mxPoint x="1314.94" y="1208" as="targetPoint" />
          </mxGeometry>
        </mxCell>
        <mxCell id="xQkfAlKZnFqGmRiy124j-89" value="" style="rounded=1;whiteSpace=wrap;html=1;fillColor=none;" vertex="1" parent="1">
          <mxGeometry x="1113" y="963" width="108" height="270" as="geometry" />
        </mxCell>
        <mxCell id="xQkfAlKZnFqGmRiy124j-90" value="&lt;font&gt;$$\text{LayerNorm}$$&lt;/font&gt;" style="rounded=1;whiteSpace=wrap;html=1;align=center;fillColor=#fff2cc;strokeColor=#000000;fontSize=12.5;" vertex="1" parent="1">
          <mxGeometry x="1127" y="1184" width="80" height="30" as="geometry" />
        </mxCell>
        <mxCell id="xQkfAlKZnFqGmRiy124j-91" value="&lt;span&gt;$$\text{FLARE}$$&lt;/span&gt;" style="rounded=1;whiteSpace=wrap;html=1;align=center;fillColor=#f5f5f5;strokeColor=#000000;fontColor=#333333;fontSize=12.5;" vertex="1" parent="1">
          <mxGeometry x="1127" y="1137" width="80" height="30" as="geometry" />
        </mxCell>
        <mxCell id="xQkfAlKZnFqGmRiy124j-92" value="&lt;span&gt;$$\text{LayerNorm}$$&lt;/span&gt;" style="rounded=1;whiteSpace=wrap;html=1;align=center;fillColor=#fff2cc;strokeColor=#000000;fontSize=12.5;" vertex="1" parent="1">
          <mxGeometry x="1127" y="1054" width="80" height="30" as="geometry" />
        </mxCell>
        <mxCell id="xQkfAlKZnFqGmRiy124j-93" value="&lt;span&gt;$$\text{ResMLP}$$&lt;/span&gt;" style="rounded=1;whiteSpace=wrap;html=1;align=center;fillColor=#d5e8d4;strokeColor=#000000;fontSize=12.5;" vertex="1" parent="1">
          <mxGeometry x="1127" y="1005" width="80" height="30" as="geometry" />
        </mxCell>
        <mxCell id="xQkfAlKZnFqGmRiy124j-94" value="&lt;font&gt;$$\oplus$$&lt;/font&gt;" style="text;html=1;align=center;verticalAlign=middle;whiteSpace=wrap;rounded=0;direction=east;labelBorderColor=none;spacing=0;spacingBottom=2;spacingRight=0;spacingLeft=-1;fontSize=18;" vertex="1" parent="1">
          <mxGeometry x="1159.5" y="972" width="15" height="15" as="geometry" />
        </mxCell>
        <mxCell id="xQkfAlKZnFqGmRiy124j-95" value="&lt;font&gt;$$\oplus$$&lt;/font&gt;" style="text;html=1;align=center;verticalAlign=middle;whiteSpace=wrap;rounded=0;direction=east;labelBorderColor=none;spacing=0;spacingBottom=2;spacingRight=0;spacingLeft=-1;fontSize=18;" vertex="1" parent="1">
          <mxGeometry x="1159.5" y="1103" width="15" height="15" as="geometry" />
        </mxCell>
        <mxCell id="xQkfAlKZnFqGmRiy124j-96" value="" style="endArrow=block;html=1;rounded=0;endFill=1;" edge="1" parent="1">
          <mxGeometry width="50" height="50" relative="1" as="geometry">
            <mxPoint x="1167" y="1248" as="sourcePoint" />
            <mxPoint x="1166.93" y="1214" as="targetPoint" />
          </mxGeometry>
        </mxCell>
        <mxCell id="xQkfAlKZnFqGmRiy124j-97" value="" style="endArrow=block;html=1;rounded=0;endFill=1;entryX=0.5;entryY=1;entryDx=0;entryDy=0;" edge="1" parent="1" target="xQkfAlKZnFqGmRiy124j-91">
          <mxGeometry width="50" height="50" relative="1" as="geometry">
            <mxPoint x="1166.97" y="1184" as="sourcePoint" />
            <mxPoint x="1166.9" y="1159" as="targetPoint" />
          </mxGeometry>
        </mxCell>
        <mxCell id="xQkfAlKZnFqGmRiy124j-98" value="" style="endArrow=block;html=1;rounded=0;endFill=1;entryX=0.5;entryY=1;entryDx=0;entryDy=0;" edge="1" parent="1">
          <mxGeometry width="50" height="50" relative="1" as="geometry">
            <mxPoint x="1166.95" y="1102" as="sourcePoint" />
            <mxPoint x="1166.98" y="1084" as="targetPoint" />
          </mxGeometry>
        </mxCell>
        <mxCell id="xQkfAlKZnFqGmRiy124j-99" value="" style="endArrow=block;html=1;rounded=0;endFill=1;entryX=0.5;entryY=1;entryDx=0;entryDy=0;" edge="1" parent="1">
          <mxGeometry width="50" height="50" relative="1" as="geometry">
            <mxPoint x="1167" y="1137" as="sourcePoint" />
            <mxPoint x="1167.03" y="1119" as="targetPoint" />
          </mxGeometry>
        </mxCell>
        <mxCell id="xQkfAlKZnFqGmRiy124j-100" value="" style="endArrow=block;html=1;rounded=0;endFill=1;entryX=0.5;entryY=1;entryDx=0;entryDy=0;" edge="1" parent="1">
          <mxGeometry width="50" height="50" relative="1" as="geometry">
            <mxPoint x="1166.95" y="1054" as="sourcePoint" />
            <mxPoint x="1166.98" y="1036" as="targetPoint" />
          </mxGeometry>
        </mxCell>
        <mxCell id="xQkfAlKZnFqGmRiy124j-101" value="" style="endArrow=block;html=1;rounded=0;endFill=1;entryX=0.5;entryY=1;entryDx=0;entryDy=0;" edge="1" parent="1">
          <mxGeometry width="50" height="50" relative="1" as="geometry">
            <mxPoint x="1167" y="1005" as="sourcePoint" />
            <mxPoint x="1167.03" y="987" as="targetPoint" />
          </mxGeometry>
        </mxCell>
        <mxCell id="xQkfAlKZnFqGmRiy124j-102" value="" style="endArrow=block;html=1;rounded=0;endFill=1;" edge="1" parent="1">
          <mxGeometry width="50" height="50" relative="1" as="geometry">
            <mxPoint x="1167.03" y="972" as="sourcePoint" />
            <mxPoint x="1167" y="936" as="targetPoint" />
          </mxGeometry>
        </mxCell>
        <mxCell id="xQkfAlKZnFqGmRiy124j-103" value="" style="edgeStyle=segmentEdgeStyle;endArrow=block;html=1;curved=0;rounded=1;endSize=8;startSize=8;endFill=1;flowAnimation=0;fontSize=12.5;" edge="1" parent="1">
          <mxGeometry width="50" height="50" relative="1" as="geometry">
            <mxPoint x="1167" y="1227" as="sourcePoint" />
            <mxPoint x="1156.96" y="1111" as="targetPoint" />
            <Array as="points">
              <mxPoint x="1119" y="1227" />
              <mxPoint x="1119" y="1111" />
            </Array>
          </mxGeometry>
        </mxCell>
        <mxCell id="xQkfAlKZnFqGmRiy124j-104" value="" style="edgeStyle=segmentEdgeStyle;endArrow=block;html=1;curved=0;rounded=1;endSize=8;startSize=8;endFill=1;flowAnimation=0;fontSize=12.5;" edge="1" parent="1">
          <mxGeometry width="50" height="50" relative="1" as="geometry">
            <mxPoint x="1167" y="1096" as="sourcePoint" />
            <mxPoint x="1156.96" y="980" as="targetPoint" />
            <Array as="points">
              <mxPoint x="1119" y="1096" />
              <mxPoint x="1119" y="980" />
            </Array>
          </mxGeometry>
        </mxCell>
        <mxCell id="xQkfAlKZnFqGmRiy124j-107" value="&lt;span&gt;$$\text{Linear}$$&lt;/span&gt;" style="rounded=1;whiteSpace=wrap;html=1;align=center;fillColor=#dae8fc;strokeColor=#000000;fontSize=12.5;" vertex="1" parent="1">
          <mxGeometry x="1365" y="902" width="80" height="30" as="geometry" />
        </mxCell>
        <mxCell id="0xg1YhfjWM0nEvJ3u9Fa-138" value="" style="endArrow=block;html=1;rounded=1;endFill=1;curved=0;entryX=0.5;entryY=1;entryDx=0;entryDy=0;fontSize=12.5;exitX=0.5;exitY=0;exitDx=0;exitDy=0;" edge="1" parent="1" source="0xg1YhfjWM0nEvJ3u9Fa-163">
          <mxGeometry width="50" height="50" relative="1" as="geometry">
            <mxPoint x="1405" y="1232" as="sourcePoint" />
            <mxPoint x="1405" y="1165" as="targetPoint" />
            <Array as="points">
              <mxPoint x="1405" y="1190" />
            </Array>
          </mxGeometry>
        </mxCell>
        <mxCell id="0xg1YhfjWM0nEvJ3u9Fa-142" value="" style="edgeStyle=orthogonalEdgeStyle;rounded=0;orthogonalLoop=1;jettySize=auto;html=1;endArrow=block;endFill=1;fontSize=12.5;" edge="1" parent="1" source="0xg1YhfjWM0nEvJ3u9Fa-143" target="0xg1YhfjWM0nEvJ3u9Fa-145">
          <mxGeometry relative="1" as="geometry" />
        </mxCell>
        <mxCell id="0xg1YhfjWM0nEvJ3u9Fa-143" value="&lt;span&gt;$$\text{softmax}(Q\cdot K^T)\cdot V$$&lt;/span&gt;" style="rounded=1;whiteSpace=wrap;html=1;align=center;fontSize=12.5;" vertex="1" parent="1">
          <mxGeometry x="1335" y="1133" width="140" height="30" as="geometry" />
        </mxCell>
        <mxCell id="0xg1YhfjWM0nEvJ3u9Fa-144" value="" style="edgeStyle=orthogonalEdgeStyle;rounded=0;orthogonalLoop=1;jettySize=auto;html=1;entryX=0.5;entryY=1;entryDx=0;entryDy=0;endArrow=block;endFill=1;fontSize=12.5;" edge="1" parent="1" source="0xg1YhfjWM0nEvJ3u9Fa-145">
          <mxGeometry relative="1" as="geometry">
            <mxPoint x="1405" y="979" as="targetPoint" />
          </mxGeometry>
        </mxCell>
        <mxCell id="0xg1YhfjWM0nEvJ3u9Fa-145" value="&lt;span&gt;$$\text{softmax}(K\cdot Q^T)\cdot Z$$&lt;/span&gt;" style="rounded=1;whiteSpace=wrap;html=1;align=center;fontSize=12.5;" vertex="1" parent="1">
          <mxGeometry x="1335" y="1052" width="140" height="30" as="geometry" />
        </mxCell>
        <mxCell id="0xg1YhfjWM0nEvJ3u9Fa-149" value="&lt;font style=&quot;line-height: 100%;&quot;&gt;$$Q\hspace{-0.2em}:\hspace{-0.1em} {[M,D]}$$&lt;/font&gt;" style="rounded=1;whiteSpace=wrap;html=1;strokeColor=none;fillColor=default;align=center;fontSize=12.5;" vertex="1" parent="1">
          <mxGeometry x="1280.02" y="1182.75" width="69.96" height="24" as="geometry" />
        </mxCell>
        <mxCell id="0xg1YhfjWM0nEvJ3u9Fa-150" value="&lt;font style=&quot;line-height: 100%;&quot;&gt;$$V\hspace{-0.2em}:\hspace{-0.1em}&amp;nbsp;{[N,D]}$$&lt;/font&gt;" style="rounded=1;whiteSpace=wrap;html=1;strokeColor=none;fillColor=default;align=center;fontSize=12.5;" vertex="1" parent="1">
          <mxGeometry x="1372.51" y="1184" width="64.98" height="24" as="geometry" />
        </mxCell>
        <mxCell id="0xg1YhfjWM0nEvJ3u9Fa-151" value="$$K\hspace{-0.2em}:\hspace{-0.1em}&amp;nbsp;[N,D]$$" style="rounded=1;whiteSpace=wrap;html=1;strokeColor=none;fillColor=default;align=center;fontSize=12.5;" vertex="1" parent="1">
          <mxGeometry x="1460" y="1181.5" width="70" height="26.5" as="geometry" />
        </mxCell>
        <mxCell id="0xg1YhfjWM0nEvJ3u9Fa-160" value="&lt;font style=&quot;line-height: 100%;&quot;&gt;$$Z\hspace{-0.2em}:\hspace{-0.1em} {[M,D]}$$&lt;/font&gt;" style="rounded=1;whiteSpace=wrap;html=1;strokeColor=none;fillColor=default;align=center;fontSize=12.5;" vertex="1" parent="1">
          <mxGeometry x="1372.51" y="1099" width="64.98" height="24" as="geometry" />
        </mxCell>
        <mxCell id="0xg1YhfjWM0nEvJ3u9Fa-161" value="&lt;font style=&quot;line-height: 100%;&quot;&gt;$$Y\hspace{-0.2em}:\hspace{-0.1em}{[N,D]}$$&lt;/font&gt;" style="rounded=1;whiteSpace=wrap;html=1;strokeColor=none;fillColor=default;align=center;fontSize=12.5;" vertex="1" parent="1">
          <mxGeometry x="1372.51" y="1016" width="64.98" height="24" as="geometry" />
        </mxCell>
        <mxCell id="xQkfAlKZnFqGmRiy124j-24" value="" style="endArrow=block;html=1;rounded=1;entryX=0;entryY=0.5;entryDx=0;entryDy=0;curved=0;startArrow=none;startFill=0;endFill=1;fontSize=12.5;" edge="1" parent="1" target="0xg1YhfjWM0nEvJ3u9Fa-143">
          <mxGeometry width="50" height="50" relative="1" as="geometry">
            <mxPoint x="1315" y="1184" as="sourcePoint" />
            <mxPoint x="1365" y="1134" as="targetPoint" />
            <Array as="points">
              <mxPoint x="1315" y="1148" />
            </Array>
          </mxGeometry>
        </mxCell>
        <mxCell id="xQkfAlKZnFqGmRiy124j-109" value="" style="endArrow=block;html=1;rounded=1;entryX=1;entryY=0.5;entryDx=0;entryDy=0;curved=0;startArrow=none;startFill=0;endFill=1;fontSize=12.5;" edge="1" parent="1" target="0xg1YhfjWM0nEvJ3u9Fa-143">
          <mxGeometry width="50" height="50" relative="1" as="geometry">
            <mxPoint x="1495" y="1184" as="sourcePoint" />
            <mxPoint x="1475" y="1149" as="targetPoint" />
            <Array as="points">
              <mxPoint x="1495" y="1148" />
            </Array>
          </mxGeometry>
        </mxCell>
        <mxCell id="xQkfAlKZnFqGmRiy124j-111" value="" style="endArrow=block;html=1;rounded=1;entryX=0;entryY=0.5;entryDx=0;entryDy=0;curved=0;startArrow=none;startFill=0;endFill=1;fontSize=12.5;" edge="1" parent="1">
          <mxGeometry width="50" height="50" relative="1" as="geometry">
            <mxPoint x="1315" y="1189" as="sourcePoint" />
            <mxPoint x="1335" y="1067" as="targetPoint" />
            <Array as="points">
              <mxPoint x="1315" y="1067" />
            </Array>
          </mxGeometry>
        </mxCell>
        <mxCell id="xQkfAlKZnFqGmRiy124j-112" value="" style="endArrow=block;html=1;rounded=1;entryX=1;entryY=0.5;entryDx=0;entryDy=0;curved=0;startArrow=none;startFill=0;endFill=1;fontSize=12.5;exitX=0.5;exitY=0;exitDx=0;exitDy=0;" edge="1" parent="1">
          <mxGeometry width="50" height="50" relative="1" as="geometry">
            <mxPoint x="1495" y="1186.5000000000002" as="sourcePoint" />
            <mxPoint x="1475" y="1067" as="targetPoint" />
            <Array as="points">
              <mxPoint x="1495" y="1067" />
            </Array>
          </mxGeometry>
        </mxCell>
        <mxCell id="xQkfAlKZnFqGmRiy124j-123" value="" style="endArrow=block;html=1;rounded=1;entryX=0.5;entryY=1;entryDx=0;entryDy=0;endFill=1;curved=0;" edge="1" parent="1" target="0xg1YhfjWM0nEvJ3u9Fa-163">
          <mxGeometry width="50" height="50" relative="1" as="geometry">
            <mxPoint x="1450" y="1308" as="sourcePoint" />
            <mxPoint x="1500" y="1261" as="targetPoint" />
            <Array as="points">
              <mxPoint x="1450" y="1284" />
              <mxPoint x="1405" y="1284" />
            </Array>
          </mxGeometry>
        </mxCell>
        <mxCell id="xQkfAlKZnFqGmRiy124j-124" value="" style="endArrow=block;html=1;rounded=1;entryX=0.5;entryY=1;entryDx=0;entryDy=0;endFill=1;curved=0;" edge="1" parent="1" target="0xg1YhfjWM0nEvJ3u9Fa-162">
          <mxGeometry width="50" height="50" relative="1" as="geometry">
            <mxPoint x="1450" y="1308" as="sourcePoint" />
            <mxPoint x="1405" y="1269" as="targetPoint" />
            <Array as="points">
              <mxPoint x="1450" y="1284" />
              <mxPoint x="1495" y="1284" />
            </Array>
          </mxGeometry>
        </mxCell>
        <mxCell id="xQkfAlKZnFqGmRiy124j-126" value="" style="rounded=1;whiteSpace=wrap;html=1;arcSize=6;movable=1;resizable=1;rotatable=1;deletable=1;editable=1;locked=0;connectable=1;fillColor=none;dashed=1;fontSize=12.5;" vertex="1" parent="1">
          <mxGeometry x="1589.69" y="888" width="281" height="228" as="geometry" />
        </mxCell>
        <mxCell id="xQkfAlKZnFqGmRiy124j-127" value="" style="shape=image;verticalLabelPosition=bottom;labelBackgroundColor=default;verticalAlign=top;imageAspect=0;editableCssRules=.*;image=data:image/svg+xml,PHN2ZyB4bWxucz0iaHR0cDovL3d3dy53My5vcmcvMjAwMC9zdmciIHN0eWxlPSJjdXJzb3I6IG1vdmU7IiBoZWlnaHQ9IjQxMC4xODUzNjM3Njk1MzEyNSIgd2lkdGg9IjQ2MC40MTIxMDkzNzUiIHZpZXdCb3g9IjUxNC40NDkzNDA4MjAzMTI1IDY1OS4zOTU2OTA5MTc5Njg4IDQ2MC40MTIxMDkzNzUgNDEwLjE4NTM2Mzc2OTUzMTI1Ij48ZyB0cmFuc2Zvcm09InRyYW5zbGF0ZSgtMzY5Ljc1MTI4MDE2MjU0MTIsLTU4Mi42NzA3MjQ5MTU4NjkyKSBzY2FsZSgyLjA5Mjc4MjQ3MjczMzUzNDcpIj48cGF0aCBzdHlsZT0ic3Ryb2tlLXdpZHRoOiAxLjY0OyBzdHJva2Utb3BhY2l0eTogMC40Nzsgc3Ryb2tlOiByZ2IoODAsIDgwLCA4MCk7IGZpbGw6IG5vbmU7IiBkPSJNNDI3LjUsNTk4LjUsIDUwMi41LDY5MS41IiBtYXJrZXItZW5kPSIiIGNsYXNzPSJsaW5rIi8+PHBhdGggc3R5bGU9InN0cm9rZS13aWR0aDogMS42NDsgc3Ryb2tlLW9wYWNpdHk6IDAuNDc7IHN0cm9rZTogcmdiKDgwLCA4MCwgODApOyBmaWxsOiBub25lOyIgZD0iTTQyNy41LDU5OC41LCA1MzIuNSw2OTEuNSIgbWFya2VyLWVuZD0iIiBjbGFzcz0ibGluayIvPjxwYXRoIHN0eWxlPSJzdHJva2Utd2lkdGg6IDEuNjQ7IHN0cm9rZS1vcGFjaXR5OiAwLjQ3OyBzdHJva2U6IHJnYig4MCwgODAsIDgwKTsgZmlsbDogbm9uZTsiIGQ9Ik00MjcuNSw1OTguNSwgNTYyLjUsNjkxLjUiIG1hcmtlci1lbmQ9IiIgY2xhc3M9ImxpbmsiLz48cGF0aCBzdHlsZT0ic3Ryb2tlLXdpZHRoOiAxLjY0OyBzdHJva2Utb3BhY2l0eTogMC40Nzsgc3Ryb2tlOiByZ2IoODAsIDgwLCA4MCk7IGZpbGw6IG5vbmU7IiBkPSJNNDU3LjUsNTk4LjUsIDUwMi41LDY5MS41IiBtYXJrZXItZW5kPSIiIGNsYXNzPSJsaW5rIi8+PHBhdGggc3R5bGU9InN0cm9rZS13aWR0aDogMS42NDsgc3Ryb2tlLW9wYWNpdHk6IDAuNDc7IHN0cm9rZTogcmdiKDgwLCA4MCwgODApOyBmaWxsOiBub25lOyIgZD0iTTQ1Ny41LDU5OC41LCA1MzIuNSw2OTEuNSIgbWFya2VyLWVuZD0iIiBjbGFzcz0ibGluayIvPjxwYXRoIHN0eWxlPSJzdHJva2Utd2lkdGg6IDEuNjQ7IHN0cm9rZS1vcGFjaXR5OiAwLjQ3OyBzdHJva2U6IHJnYig4MCwgODAsIDgwKTsgZmlsbDogbm9uZTsiIGQ9Ik00NTcuNSw1OTguNSwgNTYyLjUsNjkxLjUiIG1hcmtlci1lbmQ9IiIgY2xhc3M9ImxpbmsiLz48cGF0aCBzdHlsZT0ic3Ryb2tlLXdpZHRoOiAxLjY0OyBzdHJva2Utb3BhY2l0eTogMC40Nzsgc3Ryb2tlOiByZ2IoODAsIDgwLCA4MCk7IGZpbGw6IG5vbmU7IiBkPSJNNDg3LjUsNTk4LjUsIDUwMi41LDY5MS41IiBtYXJrZXItZW5kPSIiIGNsYXNzPSJsaW5rIi8+PHBhdGggc3R5bGU9InN0cm9rZS13aWR0aDogMS42NDsgc3Ryb2tlLW9wYWNpdHk6IDAuNDc7IHN0cm9rZTogcmdiKDgwLCA4MCwgODApOyBmaWxsOiBub25lOyIgZD0iTTQ4Ny41LDU5OC41LCA1MzIuNSw2OTEuNSIgbWFya2VyLWVuZD0iIiBjbGFzcz0ibGluayIvPjxwYXRoIHN0eWxlPSJzdHJva2Utd2lkdGg6IDEuNjQ7IHN0cm9rZS1vcGFjaXR5OiAwLjQ3OyBzdHJva2U6IHJnYig4MCwgODAsIDgwKTsgZmlsbDogbm9uZTsiIGQ9Ik00ODcuNSw1OTguNSwgNTYyLjUsNjkxLjUiIG1hcmtlci1lbmQ9IiIgY2xhc3M9ImxpbmsiLz48cGF0aCBzdHlsZT0ic3Ryb2tlLXdpZHRoOiAxLjY0OyBzdHJva2Utb3BhY2l0eTogMC40Nzsgc3Ryb2tlOiByZ2IoODAsIDgwLCA4MCk7IGZpbGw6IG5vbmU7IiBkPSJNNTE3LjUsNTk4LjUsIDUwMi41LDY5MS41IiBtYXJrZXItZW5kPSIiIGNsYXNzPSJsaW5rIi8+PHBhdGggc3R5bGU9InN0cm9rZS13aWR0aDogMS42NDsgc3Ryb2tlLW9wYWNpdHk6IDAuNDc7IHN0cm9rZTogcmdiKDgwLCA4MCwgODApOyBmaWxsOiBub25lOyIgZD0iTTUxNy41LDU5OC41LCA1MzIuNSw2OTEuNSIgbWFya2VyLWVuZD0iIiBjbGFzcz0ibGluayIvPjxwYXRoIHN0eWxlPSJzdHJva2Utd2lkdGg6IDEuNjQ7IHN0cm9rZS1vcGFjaXR5OiAwLjQ3OyBzdHJva2U6IHJnYig4MCwgODAsIDgwKTsgZmlsbDogbm9uZTsiIGQ9Ik01MTcuNSw1OTguNSwgNTYyLjUsNjkxLjUiIG1hcmtlci1lbmQ9IiIgY2xhc3M9ImxpbmsiLz48cGF0aCBzdHlsZT0ic3Ryb2tlLXdpZHRoOiAxLjY0OyBzdHJva2Utb3BhY2l0eTogMC40Nzsgc3Ryb2tlOiByZ2IoODAsIDgwLCA4MCk7IGZpbGw6IG5vbmU7IiBkPSJNNTQ3LjUsNTk4LjUsIDUwMi41LDY5MS41IiBtYXJrZXItZW5kPSIiIGNsYXNzPSJsaW5rIi8+PHBhdGggc3R5bGU9InN0cm9rZS13aWR0aDogMS42NDsgc3Ryb2tlLW9wYWNpdHk6IDAuNDc7IHN0cm9rZTogcmdiKDgwLCA4MCwgODApOyBmaWxsOiBub25lOyIgZD0iTTU0Ny41LDU5OC41LCA1MzIuNSw2OTEuNSIgbWFya2VyLWVuZD0iIiBjbGFzcz0ibGluayIvPjxwYXRoIHN0eWxlPSJzdHJva2Utd2lkdGg6IDEuNjQ7IHN0cm9rZS1vcGFjaXR5OiAwLjQ3OyBzdHJva2U6IHJnYig4MCwgODAsIDgwKTsgZmlsbDogbm9uZTsiIGQ9Ik01NDcuNSw1OTguNSwgNTYyLjUsNjkxLjUiIG1hcmtlci1lbmQ9IiIgY2xhc3M9ImxpbmsiLz48cGF0aCBzdHlsZT0ic3Ryb2tlLXdpZHRoOiAxLjY0OyBzdHJva2Utb3BhY2l0eTogMC40Nzsgc3Ryb2tlOiByZ2IoODAsIDgwLCA4MCk7IGZpbGw6IG5vbmU7IiBkPSJNNTc3LjUsNTk4LjUsIDUwMi41LDY5MS41IiBtYXJrZXItZW5kPSIiIGNsYXNzPSJsaW5rIi8+PHBhdGggc3R5bGU9InN0cm9rZS13aWR0aDogMS42NDsgc3Ryb2tlLW9wYWNpdHk6IDAuNDc7IHN0cm9rZTogcmdiKDgwLCA4MCwgODApOyBmaWxsOiBub25lOyIgZD0iTTU3Ny41LDU5OC41LCA1MzIuNSw2OTEuNSIgbWFya2VyLWVuZD0iIiBjbGFzcz0ibGluayIvPjxwYXRoIHN0eWxlPSJzdHJva2Utd2lkdGg6IDEuNjQ7IHN0cm9rZS1vcGFjaXR5OiAwLjQ3OyBzdHJva2U6IHJnYig4MCwgODAsIDgwKTsgZmlsbDogbm9uZTsiIGQ9Ik01NzcuNSw1OTguNSwgNTYyLjUsNjkxLjUiIG1hcmtlci1lbmQ9IiIgY2xhc3M9ImxpbmsiLz48cGF0aCBzdHlsZT0ic3Ryb2tlLXdpZHRoOiAxLjY0OyBzdHJva2Utb3BhY2l0eTogMC40Nzsgc3Ryb2tlOiByZ2IoODAsIDgwLCA4MCk7IGZpbGw6IG5vbmU7IiBkPSJNNjA3LjUsNTk4LjUsIDUwMi41LDY5MS41IiBtYXJrZXItZW5kPSIiIGNsYXNzPSJsaW5rIi8+PHBhdGggc3R5bGU9InN0cm9rZS13aWR0aDogMS42NDsgc3Ryb2tlLW9wYWNpdHk6IDAuNDc7IHN0cm9rZTogcmdiKDgwLCA4MCwgODApOyBmaWxsOiBub25lOyIgZD0iTTYwNy41LDU5OC41LCA1MzIuNSw2OTEuNSIgbWFya2VyLWVuZD0iIiBjbGFzcz0ibGluayIvPjxwYXRoIHN0eWxlPSJzdHJva2Utd2lkdGg6IDEuNjQ7IHN0cm9rZS1vcGFjaXR5OiAwLjQ3OyBzdHJva2U6IHJnYig4MCwgODAsIDgwKTsgZmlsbDogbm9uZTsiIGQ9Ik02MDcuNSw1OTguNSwgNTYyLjUsNjkxLjUiIG1hcmtlci1lbmQ9IiIgY2xhc3M9ImxpbmsiLz48cGF0aCBzdHlsZT0ic3Ryb2tlLXdpZHRoOiAxLjY0OyBzdHJva2Utb3BhY2l0eTogMC40Nzsgc3Ryb2tlOiByZ2IoODAsIDgwLCA4MCk7IGZpbGw6IG5vbmU7IiBkPSJNNjM3LjUsNTk4LjUsIDUwMi41LDY5MS41IiBtYXJrZXItZW5kPSIiIGNsYXNzPSJsaW5rIi8+PHBhdGggc3R5bGU9InN0cm9rZS13aWR0aDogMS42NDsgc3Ryb2tlLW9wYWNpdHk6IDAuNDc7IHN0cm9rZTogcmdiKDgwLCA4MCwgODApOyBmaWxsOiBub25lOyIgZD0iTTYzNy41LDU5OC41LCA1MzIuNSw2OTEuNSIgbWFya2VyLWVuZD0iIiBjbGFzcz0ibGluayIvPjxwYXRoIHN0eWxlPSJzdHJva2Utd2lkdGg6IDEuNjQ7IHN0cm9rZS1vcGFjaXR5OiAwLjQ3OyBzdHJva2U6IHJnYig4MCwgODAsIDgwKTsgZmlsbDogbm9uZTsiIGQ9Ik02MzcuNSw1OTguNSwgNTYyLjUsNjkxLjUiIG1hcmtlci1lbmQ9IiIgY2xhc3M9ImxpbmsiLz48cGF0aCBzdHlsZT0ic3Ryb2tlLXdpZHRoOiAxLjY0OyBzdHJva2Utb3BhY2l0eTogMC40Nzsgc3Ryb2tlOiByZ2IoODAsIDgwLCA4MCk7IGZpbGw6IG5vbmU7IiBkPSJNNTAyLjUsNjkxLjUsIDQyNy41LDc4NC41IiBtYXJrZXItZW5kPSIiIGNsYXNzPSJsaW5rIi8+PHBhdGggc3R5bGU9InN0cm9rZS13aWR0aDogMS42NDsgc3Ryb2tlLW9wYWNpdHk6IDAuNDc7IHN0cm9rZTogcmdiKDgwLCA4MCwgODApOyBmaWxsOiBub25lOyIgZD0iTTUzMi41LDY5MS41LCA0MjcuNSw3ODQuNSIgbWFya2VyLWVuZD0iIiBjbGFzcz0ibGluayIvPjxwYXRoIHN0eWxlPSJzdHJva2Utd2lkdGg6IDEuNjQ7IHN0cm9rZS1vcGFjaXR5OiAwLjQ3OyBzdHJva2U6IHJnYig4MCwgODAsIDgwKTsgZmlsbDogbm9uZTsiIGQ9Ik01NjIuNSw2OTEuNSwgNDI3LjUsNzg0LjUiIG1hcmtlci1lbmQ9IiIgY2xhc3M9ImxpbmsiLz48cGF0aCBzdHlsZT0ic3Ryb2tlLXdpZHRoOiAxLjY0OyBzdHJva2Utb3BhY2l0eTogMC40Nzsgc3Ryb2tlOiByZ2IoODAsIDgwLCA4MCk7IGZpbGw6IG5vbmU7IiBkPSJNNTAyLjUsNjkxLjUsIDQ1Ny41LDc4NC41IiBtYXJrZXItZW5kPSIiIGNsYXNzPSJsaW5rIi8+PHBhdGggc3R5bGU9InN0cm9rZS13aWR0aDogMS42NDsgc3Ryb2tlLW9wYWNpdHk6IDAuNDc7IHN0cm9rZTogcmdiKDgwLCA4MCwgODApOyBmaWxsOiBub25lOyIgZD0iTTUwMi41LDY5MS41LCA0ODcuNSw3ODQuNSIgbWFya2VyLWVuZD0iIiBjbGFzcz0ibGluayIvPjxwYXRoIHN0eWxlPSJzdHJva2Utd2lkdGg6IDEuNjQ7IHN0cm9rZS1vcGFjaXR5OiAwLjQ3OyBzdHJva2U6IHJnYig4MCwgODAsIDgwKTsgZmlsbDogbm9uZTsiIGQ9Ik01MDIuNSw2OTEuNSwgNTE3LjUsNzg0LjUiIG1hcmtlci1lbmQ9IiIgY2xhc3M9ImxpbmsiLz48cGF0aCBzdHlsZT0ic3Ryb2tlLXdpZHRoOiAxLjY0OyBzdHJva2Utb3BhY2l0eTogMC40Nzsgc3Ryb2tlOiByZ2IoODAsIDgwLCA4MCk7IGZpbGw6IG5vbmU7IiBkPSJNNTAyLjUsNjkxLjUsIDU0Ny41LDc4NC41IiBtYXJrZXItZW5kPSIiIGNsYXNzPSJsaW5rIi8+PHBhdGggc3R5bGU9InN0cm9rZS13aWR0aDogMS42NDsgc3Ryb2tlLW9wYWNpdHk6IDAuNDc7IHN0cm9rZTogcmdiKDgwLCA4MCwgODApOyBmaWxsOiBub25lOyIgZD0iTTUwMi41LDY5MS41LCA1NzcuNSw3ODQuNSIgbWFya2VyLWVuZD0iIiBjbGFzcz0ibGluayIvPjxwYXRoIHN0eWxlPSJzdHJva2Utd2lkdGg6IDEuNjQ7IHN0cm9rZS1vcGFjaXR5OiAwLjQ3OyBzdHJva2U6IHJnYig4MCwgODAsIDgwKTsgZmlsbDogbm9uZTsiIGQ9Ik01MDIuNSw2OTEuNSwgNjA3LjUsNzg0LjUiIG1hcmtlci1lbmQ9IiIgY2xhc3M9ImxpbmsiLz48cGF0aCBzdHlsZT0ic3Ryb2tlLXdpZHRoOiAxLjY0OyBzdHJva2Utb3BhY2l0eTogMC40Nzsgc3Ryb2tlOiByZ2IoODAsIDgwLCA4MCk7IGZpbGw6IG5vbmU7IiBkPSJNNTAyLjUsNjkxLjUsIDYzNy41LDc4NC41IiBtYXJrZXItZW5kPSIiIGNsYXNzPSJsaW5rIi8+PHBhdGggc3R5bGU9InN0cm9rZS13aWR0aDogMS42NDsgc3Ryb2tlLW9wYWNpdHk6IDAuNDc7IHN0cm9rZTogcmdiKDgwLCA4MCwgODApOyBmaWxsOiBub25lOyIgZD0iTTUzMi41LDY5MS41LCA0NTcuNSw3ODQuNSIgbWFya2VyLWVuZD0iIiBjbGFzcz0ibGluayIvPjxwYXRoIHN0eWxlPSJzdHJva2Utd2lkdGg6IDEuNjQ7IHN0cm9rZS1vcGFjaXR5OiAwLjQ3OyBzdHJva2U6IHJnYig4MCwgODAsIDgwKTsgZmlsbDogbm9uZTsiIGQ9Ik01MzIuNSw2OTEuNSwgNDg3LjUsNzg0LjUiIG1hcmtlci1lbmQ9IiIgY2xhc3M9ImxpbmsiLz48cGF0aCBzdHlsZT0ic3Ryb2tlLXdpZHRoOiAxLjY0OyBzdHJva2Utb3BhY2l0eTogMC40Nzsgc3Ryb2tlOiByZ2IoODAsIDgwLCA4MCk7IGZpbGw6IG5vbmU7IiBkPSJNNTMyLjUsNjkxLjUsIDUxNy41LDc4NC41IiBtYXJrZXItZW5kPSIiIGNsYXNzPSJsaW5rIi8+PHBhdGggc3R5bGU9InN0cm9rZS13aWR0aDogMS42NDsgc3Ryb2tlLW9wYWNpdHk6IDAuNDc7IHN0cm9rZTogcmdiKDgwLCA4MCwgODApOyBmaWxsOiBub25lOyIgZD0iTTUzMi41LDY5MS41LCA1NDcuNSw3ODQuNSIgbWFya2VyLWVuZD0iIiBjbGFzcz0ibGluayIvPjxwYXRoIHN0eWxlPSJzdHJva2Utd2lkdGg6IDEuNjQ7IHN0cm9rZS1vcGFjaXR5OiAwLjQ3OyBzdHJva2U6IHJnYig4MCwgODAsIDgwKTsgZmlsbDogbm9uZTsiIGQ9Ik01MzIuNSw2OTEuNSwgNTc3LjUsNzg0LjUiIG1hcmtlci1lbmQ9IiIgY2xhc3M9ImxpbmsiLz48cGF0aCBzdHlsZT0ic3Ryb2tlLXdpZHRoOiAxLjY0OyBzdHJva2Utb3BhY2l0eTogMC40Nzsgc3Ryb2tlOiByZ2IoODAsIDgwLCA4MCk7IGZpbGw6IG5vbmU7IiBkPSJNNTMyLjUsNjkxLjUsIDYwNy41LDc4NC41IiBtYXJrZXItZW5kPSIiIGNsYXNzPSJsaW5rIi8+PHBhdGggc3R5bGU9InN0cm9rZS13aWR0aDogMS42NDsgc3Ryb2tlLW9wYWNpdHk6IDAuNDc7IHN0cm9rZTogcmdiKDgwLCA4MCwgODApOyBmaWxsOiBub25lOyIgZD0iTTUzMi41LDY5MS41LCA2MzcuNSw3ODQuNSIgbWFya2VyLWVuZD0iIiBjbGFzcz0ibGluayIvPjxwYXRoIHN0eWxlPSJzdHJva2Utd2lkdGg6IDEuNjQ7IHN0cm9rZS1vcGFjaXR5OiAwLjQ3OyBzdHJva2U6IHJnYig4MCwgODAsIDgwKTsgZmlsbDogbm9uZTsiIGQ9Ik01NjIuNSw2OTEuNSwgNDU3LjUsNzg0LjUiIG1hcmtlci1lbmQ9IiIgY2xhc3M9ImxpbmsiLz48cGF0aCBzdHlsZT0ic3Ryb2tlLXdpZHRoOiAxLjY0OyBzdHJva2Utb3BhY2l0eTogMC40Nzsgc3Ryb2tlOiByZ2IoODAsIDgwLCA4MCk7IGZpbGw6IG5vbmU7IiBkPSJNNTYyLjUsNjkxLjUsIDQ4Ny41LDc4NC41IiBtYXJrZXItZW5kPSIiIGNsYXNzPSJsaW5rIi8+PHBhdGggc3R5bGU9InN0cm9rZS13aWR0aDogMS42NDsgc3Ryb2tlLW9wYWNpdHk6IDAuNDc7IHN0cm9rZTogcmdiKDgwLCA4MCwgODApOyBmaWxsOiBub25lOyIgZD0iTTU2Mi41LDY5MS41LCA1MTcuNSw3ODQuNSIgbWFya2VyLWVuZD0iIiBjbGFzcz0ibGluayIvPjxwYXRoIHN0eWxlPSJzdHJva2Utd2lkdGg6IDEuNjQ7IHN0cm9rZS1vcGFjaXR5OiAwLjQ3OyBzdHJva2U6IHJnYig4MCwgODAsIDgwKTsgZmlsbDogbm9uZTsiIGQ9Ik01NjIuNSw2OTEuNSwgNTQ3LjUsNzg0LjUiIG1hcmtlci1lbmQ9IiIgY2xhc3M9ImxpbmsiLz48cGF0aCBzdHlsZT0ic3Ryb2tlLXdpZHRoOiAxLjY0OyBzdHJva2Utb3BhY2l0eTogMC40Nzsgc3Ryb2tlOiByZ2IoODAsIDgwLCA4MCk7IGZpbGw6IG5vbmU7IiBkPSJNNTYyLjUsNjkxLjUsIDU3Ny41LDc4NC41IiBtYXJrZXItZW5kPSIiIGNsYXNzPSJsaW5rIi8+PHBhdGggc3R5bGU9InN0cm9rZS13aWR0aDogMS42NDsgc3Ryb2tlLW9wYWNpdHk6IDAuNDc7IHN0cm9rZTogcmdiKDgwLCA4MCwgODApOyBmaWxsOiBub25lOyIgZD0iTTU2Mi41LDY5MS41LCA2MDcuNSw3ODQuNSIgbWFya2VyLWVuZD0iIiBjbGFzcz0ibGluayIvPjxwYXRoIHN0eWxlPSJzdHJva2Utd2lkdGg6IDEuNjQ7IHN0cm9rZS1vcGFjaXR5OiAwLjQ3OyBzdHJva2U6IHJnYig4MCwgODAsIDgwKTsgZmlsbDogbm9uZTsiIGQ9Ik01NjIuNSw2OTEuNSwgNjM3LjUsNzg0LjUiIG1hcmtlci1lbmQ9IiIgY2xhc3M9ImxpbmsiLz48Y2lyY2xlIHN0eWxlPSJmaWxsOiByZ2IoMjU1LCAyNTUsIDI1NSk7IHN0cm9rZTogcmdiKDUxLCA1MSwgNTEpOyIgY3k9IjU5OC41IiBjeD0iNDI3LjUiIGlkPSIwXzAiIGNsYXNzPSJub2RlIiByPSI1Ii8+PGNpcmNsZSBzdHlsZT0iZmlsbDogcmdiKDI1NSwgMjU1LCAyNTUpOyBzdHJva2U6IHJnYig1MSwgNTEsIDUxKTsiIGN5PSI1OTguNSIgY3g9IjQ1Ny41IiBpZD0iMF8xIiBjbGFzcz0ibm9kZSIgcj0iNSIvPjxjaXJjbGUgc3R5bGU9ImZpbGw6IHJnYigyNTUsIDI1NSwgMjU1KTsgc3Ryb2tlOiByZ2IoNTEsIDUxLCA1MSk7IiBjeT0iNTk4LjUiIGN4PSI0ODcuNSIgaWQ9IjBfMiIgY2xhc3M9Im5vZGUiIHI9IjUiLz48Y2lyY2xlIHN0eWxlPSJmaWxsOiByZ2IoMjU1LCAyNTUsIDI1NSk7IHN0cm9rZTogcmdiKDUxLCA1MSwgNTEpOyIgY3k9IjU5OC41IiBjeD0iNTE3LjUiIGlkPSIwXzMiIGNsYXNzPSJub2RlIiByPSI1Ii8+PGNpcmNsZSBzdHlsZT0iZmlsbDogcmdiKDI1NSwgMjU1LCAyNTUpOyBzdHJva2U6IHJnYig1MSwgNTEsIDUxKTsiIGN5PSI1OTguNSIgY3g9IjU0Ny41IiBpZD0iMF80IiBjbGFzcz0ibm9kZSIgcj0iNSIvPjxjaXJjbGUgc3R5bGU9ImZpbGw6IHJnYigyNTUsIDI1NSwgMjU1KTsgc3Ryb2tlOiByZ2IoNTEsIDUxLCA1MSk7IiBjeT0iNTk4LjUiIGN4PSI1NzcuNSIgaWQ9IjBfNSIgY2xhc3M9Im5vZGUiIHI9IjUiLz48Y2lyY2xlIHN0eWxlPSJmaWxsOiByZ2IoMjU1LCAyNTUsIDI1NSk7IHN0cm9rZTogcmdiKDUxLCA1MSwgNTEpOyIgY3k9IjU5OC41IiBjeD0iNjA3LjUiIGlkPSIwXzYiIGNsYXNzPSJub2RlIiByPSI1Ii8+PGNpcmNsZSBzdHlsZT0iZmlsbDogcmdiKDI1NSwgMjU1LCAyNTUpOyBzdHJva2U6IHJnYig1MSwgNTEsIDUxKTsiIGN5PSI1OTguNSIgY3g9IjYzNy41IiBpZD0iMF83IiBjbGFzcz0ibm9kZSIgcj0iNSIvPjxjaXJjbGUgc3R5bGU9ImZpbGw6IHJnYigyNTUsIDI1NSwgMjU1KTsgc3Ryb2tlOiByZ2IoNTEsIDUxLCA1MSk7IiBjeT0iNjkxLjUiIGN4PSI1MDIuNSIgaWQ9IjFfMCIgY2xhc3M9Im5vZGUiIHI9IjUiLz48Y2lyY2xlIHN0eWxlPSJmaWxsOiByZ2IoMjU1LCAyNTUsIDI1NSk7IHN0cm9rZTogcmdiKDUxLCA1MSwgNTEpOyIgY3k9IjY5MS41IiBjeD0iNTMyLjUiIGlkPSIxXzEiIGNsYXNzPSJub2RlIiByPSI1Ii8+PGNpcmNsZSBzdHlsZT0iZmlsbDogcmdiKDI1NSwgMjU1LCAyNTUpOyBzdHJva2U6IHJnYig1MSwgNTEsIDUxKTsiIGN5PSI2OTEuNSIgY3g9IjU2Mi41IiBpZD0iMV8yIiBjbGFzcz0ibm9kZSIgcj0iNSIvPjxjaXJjbGUgc3R5bGU9ImZpbGw6IHJnYigyNTUsIDI1NSwgMjU1KTsgc3Ryb2tlOiByZ2IoNTEsIDUxLCA1MSk7IiBjeT0iNzg0LjUiIGN4PSI0MjcuNSIgaWQ9IjJfMCIgY2xhc3M9Im5vZGUiIHI9IjUiLz48dGV4dCBzdHlsZT0iZm9udC1zaXplOiAxMnB4OyIgeT0iNTk4LjUiIHg9IjY2Ny41IiBkeT0iLjM1ZW0iIGNsYXNzPSJ0ZXh0Ii8+PHRleHQgc3R5bGU9ImZvbnQtc2l6ZTogMTJweDsiIHk9IjY5MS41IiB4PSI2NjcuNSIgZHk9Ii4zNWVtIiBjbGFzcz0idGV4dCIvPjx0ZXh0IHN0eWxlPSJmb250LXNpemU6IDEycHg7IiB5PSI3ODQuNSIgeD0iNjY3LjUiIGR5PSIuMzVlbSIgY2xhc3M9InRleHQiLz48Y2lyY2xlIHN0eWxlPSJmaWxsOiByZ2IoMjU1LCAyNTUsIDI1NSk7IHN0cm9rZTogcmdiKDUxLCA1MSwgNTEpOyIgY3k9Ijc4NC41IiBjeD0iNDU3LjUiIGlkPSIyXzEiIGNsYXNzPSJub2RlIiByPSI1Ii8+PGNpcmNsZSBzdHlsZT0iZmlsbDogcmdiKDI1NSwgMjU1LCAyNTUpOyBzdHJva2U6IHJnYig1MSwgNTEsIDUxKTsiIGN5PSI3ODQuNSIgY3g9IjQ4Ny41IiBpZD0iMl8yIiBjbGFzcz0ibm9kZSIgcj0iNSIvPjxjaXJjbGUgc3R5bGU9ImZpbGw6IHJnYigyNTUsIDI1NSwgMjU1KTsgc3Ryb2tlOiByZ2IoNTEsIDUxLCA1MSk7IiBjeT0iNzg0LjUiIGN4PSI1MTcuNSIgaWQ9IjJfMyIgY2xhc3M9Im5vZGUiIHI9IjUiLz48Y2lyY2xlIHN0eWxlPSJmaWxsOiByZ2IoMjU1LCAyNTUsIDI1NSk7IHN0cm9rZTogcmdiKDUxLCA1MSwgNTEpOyIgY3k9Ijc4NC41IiBjeD0iNTQ3LjUiIGlkPSIyXzQiIGNsYXNzPSJub2RlIiByPSI1Ii8+PGNpcmNsZSBzdHlsZT0iZmlsbDogcmdiKDI1NSwgMjU1LCAyNTUpOyBzdHJva2U6IHJnYig1MSwgNTEsIDUxKTsiIGN5PSI3ODQuNSIgY3g9IjU3Ny41IiBpZD0iMl81IiBjbGFzcz0ibm9kZSIgcj0iNSIvPjxjaXJjbGUgc3R5bGU9ImZpbGw6IHJnYigyNTUsIDI1NSwgMjU1KTsgc3Ryb2tlOiByZ2IoNTEsIDUxLCA1MSk7IiBjeT0iNzg0LjUiIGN4PSI2MDcuNSIgaWQ9IjJfNiIgY2xhc3M9Im5vZGUiIHI9IjUiLz48Y2lyY2xlIHN0eWxlPSJmaWxsOiByZ2IoMjU1LCAyNTUsIDI1NSk7IHN0cm9rZTogcmdiKDUxLCA1MSwgNTEpOyIgY3k9Ijc4NC41IiBjeD0iNjM3LjUiIGlkPSIyXzciIGNsYXNzPSJub2RlIiByPSI1Ii8+PC9nPjxkZWZzPjxtYXJrZXIgcmVmWD0iMjYiIG9yaWVudD0iYXV0byIgbWFya2VySGVpZ2h0PSI3IiBtYXJrZXJXaWR0aD0iNyIgdmlld0JveD0iMCAtNSAxMCAxMCIgaWQ9ImFycm93Ij48cGF0aCBzdHlsZT0ic3Ryb2tlOiByZ2IoODAsIDgwLCA4MCk7IGZpbGw6IG5vbmU7IiBkPSJNMCwtNUwxMCwwTDAsNSIvPjwvbWFya2VyPjwvZGVmcz48L3N2Zz4=;fontSize=12.5;" vertex="1" parent="1">
          <mxGeometry x="1603" y="928" width="252" height="152" as="geometry" />
        </mxCell>
        <mxCell id="xQkfAlKZnFqGmRiy124j-128" value="&lt;span&gt;&lt;font&gt;$$Y \,(N \text{ tokens})$$&lt;/font&gt;&lt;/span&gt;" style="rounded=1;whiteSpace=wrap;html=1;align=center;strokeColor=none;fontSize=12.5;" vertex="1" parent="1">
          <mxGeometry x="1669.1299999999997" y="895.13" width="120" height="30" as="geometry" />
        </mxCell>
        <mxCell id="xQkfAlKZnFqGmRiy124j-129" value="$$Z\, (M \text{ tokens})$$" style="rounded=1;whiteSpace=wrap;html=1;align=left;strokeColor=none;fontSize=12.5;fillColor=none;" vertex="1" parent="1">
          <mxGeometry x="1591.97" y="989" width="90.31" height="30" as="geometry" />
        </mxCell>
        <mxCell id="xQkfAlKZnFqGmRiy124j-130" value="" style="ellipse;whiteSpace=wrap;html=1;aspect=fixed;fillColor=#FFCCFF;strokeColor=#000000;strokeWidth=2;fontSize=12.5;" vertex="1" parent="1">
          <mxGeometry x="1688.5700000000002" y="996.5000000000001" width="15" height="15" as="geometry" />
        </mxCell>
        <mxCell id="xQkfAlKZnFqGmRiy124j-131" value="" style="ellipse;whiteSpace=wrap;html=1;aspect=fixed;fillColor=#FFCCFF;strokeColor=#000000;strokeWidth=2;fontSize=12.5;" vertex="1" parent="1">
          <mxGeometry x="1721.6299999999999" y="996.5000000000002" width="15" height="15" as="geometry" />
        </mxCell>
        <mxCell id="xQkfAlKZnFqGmRiy124j-132" value="" style="ellipse;whiteSpace=wrap;html=1;aspect=fixed;fillColor=#FFCCFF;strokeColor=#000000;strokeWidth=2;fontSize=12.5;" vertex="1" parent="1">
          <mxGeometry x="1756.55" y="996.5" width="15" height="15" as="geometry" />
        </mxCell>
        <mxCell id="xQkfAlKZnFqGmRiy124j-149" value="$$V\,(N \text{ tokens})$$" style="rounded=1;whiteSpace=wrap;html=1;align=center;strokeColor=none;fontSize=12.5;fillColor=none;" vertex="1" parent="1">
          <mxGeometry x="1669.3700000000001" y="1087.9999999999998" width="119.52" height="30" as="geometry" />
        </mxCell>
        <mxCell id="fgS8QtYUSSAky0qA5PCv-1" value="" style="endArrow=none;html=1;rounded=0;exitX=1;exitY=0;exitDx=0;exitDy=0;dashed=1;dashPattern=12 12;entryX=0;entryY=0;entryDx=0;entryDy=0;" edge="1" parent="1" source="xQkfAlKZnFqGmRiy124j-91" target="xQkfAlKZnFqGmRiy124j-122">
          <mxGeometry width="50" height="50" relative="1" as="geometry">
            <mxPoint x="1210" y="1121" as="sourcePoint" />
            <mxPoint x="1260" y="860" as="targetPoint" />
          </mxGeometry>
        </mxCell>
        <mxCell id="fgS8QtYUSSAky0qA5PCv-2" value="" style="endArrow=none;html=1;rounded=0;exitX=0;exitY=1;exitDx=0;exitDy=0;dashed=1;dashPattern=12 12;entryX=1;entryY=1;entryDx=0;entryDy=0;" edge="1" parent="1" source="xQkfAlKZnFqGmRiy124j-122" target="xQkfAlKZnFqGmRiy124j-91">
          <mxGeometry width="50" height="50" relative="1" as="geometry">
            <mxPoint x="1224" y="1299" as="sourcePoint" />
            <mxPoint x="1224" y="1232" as="targetPoint" />
          </mxGeometry>
        </mxCell>
        <mxCell id="fgS8QtYUSSAky0qA5PCv-3" value="&lt;div&gt;&lt;span&gt;$$\mathbf{=}$$&lt;/span&gt;&lt;/div&gt;" style="rounded=1;whiteSpace=wrap;html=1;align=center;strokeColor=none;fontSize=12.5;fillColor=none;" vertex="1" parent="1">
          <mxGeometry x="1625.32" y="1219.0399999999997" width="25.62" height="30" as="geometry" />
        </mxCell>
        <mxCell id="fgS8QtYUSSAky0qA5PCv-4" value="" style="rounded=0;whiteSpace=wrap;html=1;fillColor=light-dark(#DEDEDE,#1D293B);strokeColor=#000000;strokeWidth=1;fontSize=12.5;" vertex="1" parent="1">
          <mxGeometry x="1650.94" y="1174.04" width="45" height="120" as="geometry" />
        </mxCell>
        <mxCell id="fgS8QtYUSSAky0qA5PCv-5" value="" style="rounded=0;whiteSpace=wrap;html=1;fillColor=#DEDEDE;strokeColor=#000000;strokeWidth=1;fontSize=12.5;" vertex="1" parent="1">
          <mxGeometry x="1705.69" y="1171.99" width="120" height="45" as="geometry" />
        </mxCell>
        <mxCell id="fgS8QtYUSSAky0qA5PCv-6" value="&lt;div&gt;&lt;span&gt;$$\mathbf{\cdot}$$&lt;/span&gt;&lt;/div&gt;" style="rounded=1;whiteSpace=wrap;html=1;align=center;strokeColor=none;fontSize=12.5;fillColor=none;" vertex="1" parent="1">
          <mxGeometry x="1697.44" y="1180.54" width="9.25" height="30" as="geometry" />
        </mxCell>
        <mxCell id="fgS8QtYUSSAky0qA5PCv-7" value="" style="rounded=0;whiteSpace=wrap;html=1;fillColor=#BEEDD7;strokeColor=#000000;strokeWidth=1;fontSize=12.5;" vertex="1" parent="1">
          <mxGeometry x="1835.69" y="1172" width="35" height="15" as="geometry" />
        </mxCell>
        <mxCell id="fgS8QtYUSSAky0qA5PCv-8" value="" style="rounded=0;whiteSpace=wrap;html=1;fillColor=#BEEDD7;strokeColor=#000000;strokeWidth=1;fontSize=12.5;" vertex="1" parent="1">
          <mxGeometry x="1835.69" y="1187" width="35" height="15" as="geometry" />
        </mxCell>
        <mxCell id="fgS8QtYUSSAky0qA5PCv-9" value="&lt;div&gt;&lt;span&gt;$$N \times D$$&lt;/span&gt;&lt;/div&gt;" style="rounded=1;whiteSpace=wrap;html=1;align=right;strokeColor=none;fontSize=12.5;fillColor=none;" vertex="1" parent="1">
          <mxGeometry x="1826.69" y="1292" width="44" height="30" as="geometry" />
        </mxCell>
        <mxCell id="fgS8QtYUSSAky0qA5PCv-10" value="&lt;div&gt;&lt;span&gt;$$N \times M$$&lt;/span&gt;&lt;/div&gt;" style="rounded=1;whiteSpace=wrap;html=1;align=right;strokeColor=none;fontSize=12.5;fillColor=none;" vertex="1" parent="1">
          <mxGeometry x="1649.69" y="1294.04" width="46.75" height="30" as="geometry" />
        </mxCell>
        <mxCell id="fgS8QtYUSSAky0qA5PCv-11" value="&lt;div&gt;&lt;span&gt;$$M \times N$$&lt;/span&gt;&lt;/div&gt;" style="rounded=1;whiteSpace=wrap;html=1;align=right;strokeColor=none;fontSize=12.5;fillColor=none;" vertex="1" parent="1">
          <mxGeometry x="1765.69" y="1216.99" width="60" height="30" as="geometry" />
        </mxCell>
        <mxCell id="fgS8QtYUSSAky0qA5PCv-12" value="&lt;div&gt;&lt;span&gt;$$V$$&lt;/span&gt;&lt;/div&gt;" style="rounded=1;whiteSpace=wrap;html=1;align=center;strokeColor=none;fontSize=12.5;fillColor=none;" vertex="1" parent="1">
          <mxGeometry x="1837" y="1143.4399999999998" width="32.38" height="30" as="geometry" />
        </mxCell>
        <mxCell id="fgS8QtYUSSAky0qA5PCv-13" value="&lt;div&gt;&lt;span&gt;$$Y$$&lt;/span&gt;&lt;/div&gt;" style="rounded=1;whiteSpace=wrap;html=1;align=center;strokeColor=none;fontSize=12.5;fillColor=none;" vertex="1" parent="1">
          <mxGeometry x="1587.19" y="1144.04" width="40" height="30" as="geometry" />
        </mxCell>
        <mxCell id="fgS8QtYUSSAky0qA5PCv-14" value="&lt;div&gt;&lt;span&gt;$$W_\text{encode}$$&lt;/span&gt;&lt;/div&gt;" style="rounded=1;whiteSpace=wrap;html=1;align=center;strokeColor=none;fontSize=12.5;fillColor=none;" vertex="1" parent="1">
          <mxGeometry x="1725.69" y="1142" width="80" height="30" as="geometry" />
        </mxCell>
        <mxCell id="fgS8QtYUSSAky0qA5PCv-15" value="&lt;div&gt;&lt;span&gt;$$W_\text{decode}$$&lt;/span&gt;&lt;/div&gt;" style="rounded=1;whiteSpace=wrap;html=1;align=center;strokeColor=none;fontSize=12.5;fillColor=none;" vertex="1" parent="1">
          <mxGeometry x="1642.69" y="1144.04" width="60" height="30" as="geometry" />
        </mxCell>
        <mxCell id="fgS8QtYUSSAky0qA5PCv-16" value="" style="rounded=0;whiteSpace=wrap;html=1;fillColor=#BEEDD7;strokeColor=#000000;strokeWidth=1;fontSize=12.5;" vertex="1" parent="1">
          <mxGeometry x="1835.69" y="1202" width="35" height="15" as="geometry" />
        </mxCell>
        <mxCell id="fgS8QtYUSSAky0qA5PCv-17" value="" style="rounded=0;whiteSpace=wrap;html=1;fillColor=#BEEDD7;strokeColor=#000000;strokeWidth=1;fontSize=12.5;" vertex="1" parent="1">
          <mxGeometry x="1835.69" y="1217" width="35" height="15" as="geometry" />
        </mxCell>
        <mxCell id="fgS8QtYUSSAky0qA5PCv-18" value="" style="rounded=0;whiteSpace=wrap;html=1;fillColor=#BEEDD7;strokeColor=#000000;strokeWidth=1;fontSize=12.5;" vertex="1" parent="1">
          <mxGeometry x="1835.69" y="1232" width="35" height="15" as="geometry" />
        </mxCell>
        <mxCell id="fgS8QtYUSSAky0qA5PCv-19" value="" style="rounded=0;whiteSpace=wrap;html=1;fillColor=#BEEDD7;strokeColor=#000000;strokeWidth=1;fontSize=12.5;" vertex="1" parent="1">
          <mxGeometry x="1835.69" y="1247" width="35" height="15" as="geometry" />
        </mxCell>
        <mxCell id="fgS8QtYUSSAky0qA5PCv-20" value="" style="rounded=0;whiteSpace=wrap;html=1;fillColor=#BEEDD7;strokeColor=#000000;strokeWidth=1;fontSize=12.5;" vertex="1" parent="1">
          <mxGeometry x="1835.69" y="1261.9999999999998" width="35" height="15" as="geometry" />
        </mxCell>
        <mxCell id="fgS8QtYUSSAky0qA5PCv-21" value="" style="rounded=0;whiteSpace=wrap;html=1;fillColor=#BEEDD7;strokeColor=#000000;strokeWidth=1;fontSize=12.5;" vertex="1" parent="1">
          <mxGeometry x="1835.69" y="1276.9999999999998" width="35" height="15" as="geometry" />
        </mxCell>
        <mxCell id="fgS8QtYUSSAky0qA5PCv-22" value="" style="rounded=0;whiteSpace=wrap;html=1;fillColor=#CEEBFF;strokeColor=#000000;strokeWidth=1;fontSize=12.5;" vertex="1" parent="1">
          <mxGeometry x="1589.69" y="1174.04" width="35" height="15" as="geometry" />
        </mxCell>
        <mxCell id="fgS8QtYUSSAky0qA5PCv-23" value="" style="rounded=0;whiteSpace=wrap;html=1;fillColor=#CEEBFF;strokeColor=#000000;strokeWidth=1;fontSize=12.5;" vertex="1" parent="1">
          <mxGeometry x="1589.69" y="1189.04" width="35" height="15" as="geometry" />
        </mxCell>
        <mxCell id="fgS8QtYUSSAky0qA5PCv-24" value="" style="rounded=0;whiteSpace=wrap;html=1;fillColor=#CEEBFF;strokeColor=#000000;strokeWidth=1;fontSize=12.5;" vertex="1" parent="1">
          <mxGeometry x="1589.69" y="1204.04" width="35" height="15" as="geometry" />
        </mxCell>
        <mxCell id="fgS8QtYUSSAky0qA5PCv-25" value="" style="rounded=0;whiteSpace=wrap;html=1;fillColor=#CEEBFF;strokeColor=#000000;strokeWidth=1;fontSize=12.5;" vertex="1" parent="1">
          <mxGeometry x="1589.69" y="1219.04" width="35" height="15" as="geometry" />
        </mxCell>
        <mxCell id="fgS8QtYUSSAky0qA5PCv-26" value="" style="rounded=0;whiteSpace=wrap;html=1;fillColor=#CEEBFF;strokeColor=#000000;strokeWidth=1;fontSize=12.5;" vertex="1" parent="1">
          <mxGeometry x="1589.69" y="1234.04" width="35" height="15" as="geometry" />
        </mxCell>
        <mxCell id="fgS8QtYUSSAky0qA5PCv-27" value="" style="rounded=0;whiteSpace=wrap;html=1;fillColor=#CEEBFF;strokeColor=#000000;strokeWidth=1;fontSize=12.5;" vertex="1" parent="1">
          <mxGeometry x="1589.69" y="1249.04" width="35" height="15" as="geometry" />
        </mxCell>
        <mxCell id="fgS8QtYUSSAky0qA5PCv-28" value="" style="rounded=0;whiteSpace=wrap;html=1;fillColor=#CEEBFF;strokeColor=#000000;strokeWidth=1;fontSize=12.5;" vertex="1" parent="1">
          <mxGeometry x="1589.69" y="1264.0399999999997" width="35" height="15" as="geometry" />
        </mxCell>
        <mxCell id="fgS8QtYUSSAky0qA5PCv-29" value="" style="rounded=0;whiteSpace=wrap;html=1;fillColor=#CEEBFF;strokeColor=#000000;strokeWidth=1;fontSize=12.5;" vertex="1" parent="1">
          <mxGeometry x="1589.69" y="1279.0399999999997" width="35" height="15" as="geometry" />
        </mxCell>
        <mxCell id="fgS8QtYUSSAky0qA5PCv-30" value="&lt;div&gt;&lt;span&gt;$$\mathbf{\cdot}$$&lt;/span&gt;&lt;/div&gt;" style="rounded=1;whiteSpace=wrap;html=1;align=center;strokeColor=none;fontSize=12.5;fillColor=none;" vertex="1" parent="1">
          <mxGeometry x="1825.69" y="1178.5" width="9.25" height="30" as="geometry" />
        </mxCell>
        <mxCell id="fgS8QtYUSSAky0qA5PCv-31" value="&lt;div&gt;&lt;span&gt;$$N \times D$$&lt;/span&gt;&lt;/div&gt;" style="rounded=1;whiteSpace=wrap;html=1;align=right;strokeColor=none;fontSize=12.5;fillColor=none;" vertex="1" parent="1">
          <mxGeometry x="1576.69" y="1294.0399999999997" width="48" height="30" as="geometry" />
        </mxCell>
        <mxCell id="fgS8QtYUSSAky0qA5PCv-68" value="" style="endArrow=block;html=1;rounded=1;dashed=1;exitX=1;exitY=0.5;exitDx=0;exitDy=0;endFill=1;curved=0;entryX=-0.002;entryY=0.499;entryDx=0;entryDy=0;entryPerimeter=0;" edge="1" parent="1" source="0xg1YhfjWM0nEvJ3u9Fa-131" target="xQkfAlKZnFqGmRiy124j-126">
          <mxGeometry width="50" height="50" relative="1" as="geometry">
            <mxPoint x="1560" y="1082" as="sourcePoint" />
            <mxPoint x="1584" y="1002" as="targetPoint" />
            <Array as="points">
              <mxPoint x="1572" y="1114" />
              <mxPoint x="1572" y="1002" />
            </Array>
          </mxGeometry>
        </mxCell>
        <mxCell id="fgS8QtYUSSAky0qA5PCv-72" value="" style="ellipse;whiteSpace=wrap;html=1;aspect=fixed;fillColor=#BEEDD7;strokeColor=#000000;strokeWidth=2;fontSize=12.5;" vertex="1" parent="1">
          <mxGeometry x="1602.69" y="1068.5" width="15" height="15" as="geometry" />
        </mxCell>
        <mxCell id="fgS8QtYUSSAky0qA5PCv-73" value="" style="ellipse;whiteSpace=wrap;html=1;aspect=fixed;fillColor=#BEEDD7;strokeColor=#000000;strokeWidth=2;fontSize=12.5;" vertex="1" parent="1">
          <mxGeometry x="1636.62" y="1068.5000000000002" width="15" height="15" as="geometry" />
        </mxCell>
        <mxCell id="fgS8QtYUSSAky0qA5PCv-74" value="" style="ellipse;whiteSpace=wrap;html=1;aspect=fixed;fillColor=#BEEDD7;strokeColor=#000000;strokeWidth=2;fontSize=12.5;" vertex="1" parent="1">
          <mxGeometry x="1670.69" y="1068.5" width="15" height="15" as="geometry" />
        </mxCell>
        <mxCell id="fgS8QtYUSSAky0qA5PCv-75" value="" style="ellipse;whiteSpace=wrap;html=1;aspect=fixed;fillColor=#BEEDD7;strokeColor=#000000;strokeWidth=2;fontSize=12.5;" vertex="1" parent="1">
          <mxGeometry x="1706.88" y="1068.5" width="15" height="15" as="geometry" />
        </mxCell>
        <mxCell id="fgS8QtYUSSAky0qA5PCv-78" value="" style="ellipse;whiteSpace=wrap;html=1;aspect=fixed;fillColor=#BEEDD7;strokeColor=#000000;strokeWidth=2;fontSize=12.5;" vertex="1" parent="1">
          <mxGeometry x="1737.6200000000001" y="1068.5" width="15" height="15" as="geometry" />
        </mxCell>
        <mxCell id="fgS8QtYUSSAky0qA5PCv-79" value="" style="ellipse;whiteSpace=wrap;html=1;aspect=fixed;fillColor=#BEEDD7;strokeColor=#000000;strokeWidth=2;fontSize=12.5;" vertex="1" parent="1">
          <mxGeometry x="1771.55" y="1068.5000000000002" width="15" height="15" as="geometry" />
        </mxCell>
        <mxCell id="fgS8QtYUSSAky0qA5PCv-80" value="" style="ellipse;whiteSpace=wrap;html=1;aspect=fixed;fillColor=#BEEDD7;strokeColor=#000000;strokeWidth=2;fontSize=12.5;" vertex="1" parent="1">
          <mxGeometry x="1805.6200000000001" y="1068.5" width="15" height="15" as="geometry" />
        </mxCell>
        <mxCell id="fgS8QtYUSSAky0qA5PCv-81" value="" style="ellipse;whiteSpace=wrap;html=1;aspect=fixed;fillColor=#BEEDD7;strokeColor=#000000;strokeWidth=2;fontSize=12.5;" vertex="1" parent="1">
          <mxGeometry x="1841.8100000000002" y="1068.5" width="15" height="15" as="geometry" />
        </mxCell>
        <mxCell id="fgS8QtYUSSAky0qA5PCv-82" value="" style="ellipse;whiteSpace=wrap;html=1;aspect=fixed;fillColor=#CEEBFF;strokeColor=#000000;strokeWidth=2;fontSize=12.5;" vertex="1" parent="1">
          <mxGeometry x="1602.69" y="925.13" width="15" height="15" as="geometry" />
        </mxCell>
        <mxCell id="fgS8QtYUSSAky0qA5PCv-83" value="" style="ellipse;whiteSpace=wrap;html=1;aspect=fixed;fillColor=#CEEBFF;strokeColor=#000000;strokeWidth=2;fontSize=12.5;" vertex="1" parent="1">
          <mxGeometry x="1636.62" y="925.1300000000002" width="15" height="15" as="geometry" />
        </mxCell>
        <mxCell id="fgS8QtYUSSAky0qA5PCv-84" value="" style="ellipse;whiteSpace=wrap;html=1;aspect=fixed;fillColor=#CEEBFF;strokeColor=#000000;strokeWidth=2;fontSize=12.5;" vertex="1" parent="1">
          <mxGeometry x="1670.69" y="925.13" width="15" height="15" as="geometry" />
        </mxCell>
        <mxCell id="fgS8QtYUSSAky0qA5PCv-85" value="" style="ellipse;whiteSpace=wrap;html=1;aspect=fixed;fillColor=#CEEBFF;strokeColor=#000000;strokeWidth=2;fontSize=12.5;" vertex="1" parent="1">
          <mxGeometry x="1706.88" y="925.13" width="15" height="15" as="geometry" />
        </mxCell>
        <mxCell id="fgS8QtYUSSAky0qA5PCv-86" value="" style="ellipse;whiteSpace=wrap;html=1;aspect=fixed;fillColor=#CEEBFF;strokeColor=#000000;strokeWidth=2;fontSize=12.5;" vertex="1" parent="1">
          <mxGeometry x="1737.6200000000001" y="925.13" width="15" height="15" as="geometry" />
        </mxCell>
        <mxCell id="fgS8QtYUSSAky0qA5PCv-87" value="" style="ellipse;whiteSpace=wrap;html=1;aspect=fixed;fillColor=#CEEBFF;strokeColor=#000000;strokeWidth=2;fontSize=12.5;" vertex="1" parent="1">
          <mxGeometry x="1771.55" y="925.1300000000002" width="15" height="15" as="geometry" />
        </mxCell>
        <mxCell id="fgS8QtYUSSAky0qA5PCv-88" value="" style="ellipse;whiteSpace=wrap;html=1;aspect=fixed;fillColor=#CEEBFF;strokeColor=#000000;strokeWidth=2;fontSize=12.5;" vertex="1" parent="1">
          <mxGeometry x="1805.6200000000001" y="925.13" width="15" height="15" as="geometry" />
        </mxCell>
        <mxCell id="fgS8QtYUSSAky0qA5PCv-89" value="" style="ellipse;whiteSpace=wrap;html=1;aspect=fixed;fillColor=#CEEBFF;strokeColor=#000000;strokeWidth=2;fontSize=12.5;" vertex="1" parent="1">
          <mxGeometry x="1841.8100000000002" y="925.13" width="15" height="15" as="geometry" />
        </mxCell>
        <mxCell id="fgS8QtYUSSAky0qA5PCv-91" value="" style="endArrow=block;html=1;rounded=0;endFill=1;entryX=0.5;entryY=1;entryDx=0;entryDy=0;" edge="1" parent="1">
          <mxGeometry width="50" height="50" relative="1" as="geometry">
            <mxPoint x="1405" y="950" as="sourcePoint" />
            <mxPoint x="1405.03" y="932" as="targetPoint" />
          </mxGeometry>
        </mxCell>
        <mxCell id="xQkfAlKZnFqGmRiy124j-108" value="&lt;span&gt;$$\text{Concat}$$&lt;/span&gt;" style="rounded=1;whiteSpace=wrap;html=1;align=center;fontSize=12.5;" vertex="1" parent="1">
          <mxGeometry x="1365" y="950" width="80" height="30" as="geometry" />
        </mxCell>
      </root>
    </mxGraphModel>
  </diagram>
</mxfile>
